<svg id="Capa_1" enable-background="new 0 0 512 512" height="512" viewBox="0 0 512 512" width="512" xmlns="http://www.w3.org/2000/svg"><g><g><g><path d="m167.34 119.195-89.873 27.692c-11.001 2.773-17.5 14.126-14.32 25.016 3.032 10.385 13.769 16.481 24.24 13.763l90.531-28.415z" fill="#fece85"/><path d="m63.147 171.907c2.547 8.714 10.509 14.407 19.192 14.407 1.671 0 3.362-.206 5.053-.65l90.526-28.412-4.311-15.521-74.82 23.482c-1.691.443-3.383.65-5.053.65-8.683 0-16.645-5.693-19.192-14.407-.32-1.093-.536-2.197-.66-3.29-8.776 4.084-13.551 14.098-10.735 23.741z" fill="#fdb441"/><path d="m144.884 85.142-94.914 28.68c-11.001 2.773-17.5 14.126-14.32 25.016 3.032 10.385 13.769 16.481 24.24 13.763l95.573-29.403z" fill="#ffefd2"/><path d="m125.847 49.782-94.914 28.68c-11.001 2.773-17.5 14.126-14.32 25.016 3.032 10.385 13.769 16.481 24.24 13.763l95.573-29.403z" fill="#fece85"/><path d="m35.653 138.836c2.547 8.714 10.519 14.407 19.203 14.407 1.66 0 3.352-.206 5.033-.639l95.579-29.402-4.342-15.614-79.842 24.565c-1.681.444-3.383.65-5.043.65-8.683 0-16.645-5.693-19.192-14.407-.32-1.093-.536-2.197-.66-3.29-8.777 4.073-13.562 14.087-10.736 23.73z" fill="#fedba6"/><path d="m16.615 103.473v.01c3.032 10.385 13.768 16.48 24.235 13.757l95.579-29.402-4.342-15.614-79.83 24.566c-1.691.443-3.383.65-5.053.65-8.683 0-16.645-5.693-19.192-14.407-.32-1.093-.536-2.197-.66-3.29-8.777 4.084-13.562 14.087-10.737 23.73z" fill="#fdb441"/></g><g><path d="m344.66 119.195 89.873 27.692c11.001 2.773 17.5 14.126 14.32 25.016-3.032 10.385-13.769 16.481-24.24 13.763l-90.531-28.415z" fill="#fece85"/><path d="m448.853 171.907c-2.547 8.714-10.509 14.407-19.192 14.407-1.671 0-3.362-.206-5.053-.65l-90.526-28.412 4.311-15.521 74.82 23.482c1.691.443 3.383.65 5.053.65 8.683 0 16.645-5.693 19.192-14.407.32-1.093.536-2.197.66-3.29 8.776 4.084 13.551 14.098 10.735 23.741z" fill="#fdb441"/><path d="m367.116 85.142 94.914 28.68c11.001 2.773 17.5 14.126 14.32 25.016-3.032 10.385-13.769 16.481-24.24 13.763l-95.573-29.403z" fill="#ffefd2"/><path d="m386.153 49.782 94.914 28.68c11.001 2.773 17.5 14.126 14.32 25.016-3.032 10.385-13.769 16.481-24.24 13.763l-95.573-29.403z" fill="#fece85"/><path d="m476.347 138.836c-2.547 8.714-10.519 14.407-19.203 14.407-1.66 0-3.352-.206-5.033-.639l-95.579-29.402 4.342-15.614 79.842 24.565c1.681.444 3.383.65 5.043.65 8.683 0 16.645-5.693 19.192-14.407.32-1.093.536-2.197.66-3.29 8.777 4.073 13.562 14.087 10.736 23.73z" fill="#fedba6"/><path d="m495.385 103.473v.01c-3.032 10.385-13.768 16.48-24.235 13.757l-95.58-29.401 4.342-15.614 79.832 24.565c1.691.443 3.383.65 5.053.65 8.683 0 16.645-5.693 19.192-14.407.32-1.093.536-2.197.66-3.29 8.776 4.084 13.561 14.087 10.736 23.73z" fill="#fdb441"/></g></g><path d="m384.122 56.401v22.855c0 70.76-57.362 128.122-128.122 128.122-70.76 0-128.122-57.362-128.122-128.122v-22.855l34.546-1.038v23.019c0 51.681 41.895 93.576 93.576 93.576 51.681 0 93.576-41.895 93.576-93.576v-23.019z" fill="#ffefd2"/><path d="m384.127 56.405v22.853c0 70.756-57.37 128.117-128.127 128.117-16.645 0-32.537-3.176-47.13-8.952 9.416 2.207 19.223 3.372 29.309 3.372 70.767 0 128.127-57.36 128.127-128.117v-17.81z" fill="#fedba6"/><g fill="#fec165"><circle cx="144.8" cy="58.348" r="29.969"/><circle cx="367.2" cy="58.348" r="29.969"/></g><g><path d="m174.766 58.344c0 16.552-13.417 29.969-29.969 29.969-9.756 0-18.419-4.661-23.884-11.87 2.423.629 4.961.969 7.58.969 16.552 0 29.969-13.417 29.969-29.969 0-6.807-2.269-13.077-6.084-18.109 12.879 3.362 22.388 15.077 22.388 29.01z" fill="#fdb441"/></g><path d="m231.864 63.027 8.305 433.443c.166 8.625 7.205 15.53 15.831 15.53 8.626 0 15.665-6.905 15.831-15.53l8.305-433.443h-48.272z" fill="#fece85"/><path d="m280.132 63.026-8.302 433.439c-.082 4.321-1.887 8.199-4.744 11.004s-6.776 4.527-11.086 4.527c-3.321 0-6.404-1.021-8.951-2.774.763-.526 1.475-1.114 2.124-1.753 2.867-2.805 4.661-6.683 4.744-11.004l8.302-433.439z" fill="#fdb441"/><circle cx="256" cy="41.728" fill="#fec165" r="41.728"/><path d="m297.726 41.73c0 23.049-18.677 41.726-41.726 41.726-11.416 0-21.75-4.579-29.278-11.994 3.702 1.083 7.632 1.66 11.684 1.66 23.049 0 41.726-18.687 41.726-41.726 0-11.643-4.765-22.162-12.448-29.732 17.357 5.043 30.042 21.069 30.042 40.066z" fill="#fdb441"/><g><g><path d="m298.279 345.557h-90.328c-8.264 0-16.494-1.486-24.11-4.694-12.986-5.471-28.097-17.263-29.396-42.527-.041-.803.618-1.462 1.422-1.462h.015c23.04 0 41.439-19.872 38.992-43.412-2.093-20.13-18.883-35.074-39.122-35.009-18.06.058-31.811 12.248-38.644 28.146-15.006 34.918-5.317 81.396 22.075 107.595 3.609 3.452 7.53 6.577 11.707 9.315 18.266 11.977 40.166 16.92 61.824 16.92h83.62c12.3 0 22.777 9.565 23.214 21.858.459 12.906-9.867 23.512-22.67 23.512h-103.398c-23.343 0-42.266 18.923-42.266 42.266v11.645c0 9.939 8.133 18.379 18.07 18.192 9.636-.181 17.392-8.049 17.392-17.728v-4.424c0-9.277 7.52-16.797 16.797-16.797h95.651c31.564 0 57.104-25.792 56.694-57.451-.405-31.157-26.378-55.945-57.539-55.945z" fill="#ceefdd"/><g fill="#b0e7c9"><path d="m180.317 458.951h23.158c-9.283 0-16.799 7.525-16.799 16.798v4.421c0 9.685-7.756 17.552-17.391 17.733-3.537.06-6.852-.964-9.645-2.773 4.933-3.145 8.208-8.67 8.208-14.96v-4.421c0-9.273 3.195-16.798 12.469-16.798z"/><path d="m183.843 340.859c7.616 3.215 15.844 4.702 24.113 4.702h-23.158c-8.259 0-15.613 0-23.349-2.893-21.189-7.907-26.152-32.281-27.458-57.529-.04-.814.613-1.497 1.437-1.497 11.504 0 21.32-3.115 28.332-9.183 7.003-6.068 11.202-15.08 11.443-26.865.221-10.851-6.299-22.485-15.904-28.996 18.627 1.577 33.607 15.935 35.576 34.863 2.451 23.54-15.955 43.413-38.992 43.413h-.01c-.804 0-1.467.663-1.427 1.467 1.296 25.257 16.406 37.052 29.397 42.518z"/><path d="m355.817 401.502c.412 31.658-25.127 57.449-56.695 57.449h-23.148c31.558 0 62.201-26.695 61.789-58.353-.402-31.156-31.477-55.038-62.633-55.038h23.148c31.166.001 57.137 24.787 57.539 55.942z"/></g><circle cx="155.883" cy="250.406" fill="#7a8c98" r="8.941"/></g><g><path d="m213.721 345.557h90.328c8.264 0 16.494-1.486 24.11-4.694 12.986-5.471 28.097-17.263 29.396-42.527.041-.803-.618-1.462-1.422-1.462-.005 0-.01 0-.015 0-23.04 0-41.439-19.872-38.992-43.412 2.093-20.13 18.883-35.074 39.122-35.009 18.06.058 31.811 12.248 38.644 28.146 15.006 34.918 5.317 81.396-22.075 107.595-3.609 3.452-7.53 6.577-11.707 9.315-18.266 11.977-40.166 16.92-61.824 16.92h-83.62c-12.3 0-22.777 9.565-23.214 21.858-.459 12.906 9.867 23.512 22.67 23.512h103.398c23.343 0 42.266 18.923 42.266 42.266v11.645c0 9.939-8.133 18.379-18.07 18.192-9.636-.181-17.392-8.049-17.392-17.728v-4.424c0-9.277-7.52-16.797-16.797-16.797h-95.651c-31.564 0-57.104-25.792-56.694-57.451.405-31.157 26.378-55.945 57.539-55.945z" fill="#7acaa6"/><g fill="#57be92"><path d="m331.683 458.951h-23.158c9.283 0 16.799 7.525 16.799 16.798v4.421c0 9.685 7.756 17.552 17.391 17.733 3.537.06 6.852-.964 9.645-2.773-4.933-3.145-8.208-8.67-8.208-14.96v-4.421c0-9.273-3.195-16.798-12.469-16.798z"/><path d="m328.157 340.859c-7.616 3.215-15.844 4.702-24.113 4.702h23.158c8.259 0 15.613 0 23.349-2.893 21.189-7.907 26.152-32.281 27.458-57.529.04-.814-.613-1.497-1.437-1.497-11.504 0-21.32-3.115-28.332-9.183-7.003-6.068-11.202-15.08-11.443-26.865-.221-10.851 6.299-22.485 15.904-28.996-18.627 1.577-33.607 15.935-35.576 34.863-2.451 23.54 15.955 43.413 38.992 43.413h.01c.804 0 1.467.663 1.427 1.467-1.296 25.257-16.406 37.052-29.397 42.518z"/><path d="m156.183 401.502c-.412 31.658 25.127 57.449 56.695 57.449h23.148c-31.558 0-62.201-26.695-61.789-58.353.402-31.156 31.477-55.038 62.633-55.038h-23.148c-31.166.001-57.137 24.787-57.539 55.942z"/></g><circle cx="356.117" cy="250.406" fill="#7a8c98" r="8.941"/></g></g></g></svg>